<svg xmlns="http://www.w3.org/2000/svg" width="30" height="30" fill="none" viewBox="0 0 30 30">
    <path fill="#E50914" d="M0 15.534v-1.07c.006-.04.013-.078.017-.117.045-.485.072-.973.136-1.455.21-1.573.673-3.071 1.376-4.494 1.24-2.509 3.038-4.525 5.392-6.036C8.96 1.052 11.194.29 13.61.067c1.582-.147 3.149-.055 4.696.3 3.192.735 5.876 2.335 8.02 4.807 2.25 2.595 3.457 5.626 3.65 9.055.079 1.38-.037 2.748-.35 4.096-.775 3.323-2.475 6.082-5.102 8.255-2.322 1.92-4.997 3.024-7.993 3.34-1.398.146-2.791.091-4.175-.155-1.27-.226-2.491-.607-3.66-1.153-2.3-1.074-4.217-2.625-5.73-4.662C1.218 21.6.244 18.956.038 16.032L0 15.534zm12.577 9.146h3.875v-9.694h2.697l.291-3.245h-2.994v-.13c0-.48-.002-.96.001-1.44.002-.215.004-.43.02-.643.034-.456.264-.674.72-.697.072-.003.145-.003.218-.003h2.024V5.46c-.037-.003-.064-.007-.093-.007-.928.002-1.856-.003-2.784.007-.691.007-1.37.097-2.019.353-.75.298-1.311.797-1.635 1.546-.221.51-.313 1.05-.318 1.604-.008.88-.003 1.762-.004 2.642v.14h-2.008v3.29h2.009v9.645z"/>
</svg>
