<svg xmlns="http://www.w3.org/2000/svg" width="30" height="31" fill="none" viewBox="0 0 30 31">
    <path fill="#E50914" fill-rule="evenodd" d="M29.993 8.454c-.008-2.927-1.203-5.266-3.588-6.966C24.999.486 23.4.021 21.674.02 20.463.019 19.252.014 18.04.01 14.799 0 11.558-.013 8.317.033 4.75.083 2.182 1.81.687 5.046.46 5.542.343 6.09.226 6.637c-.052.248-.105.496-.169.74-.017.068-.028.138-.039.208-.005.035-.01.07-.017.105v14.643c.025.142.047.284.068.427.047.31.094.62.177.918.932 3.358 3.112 5.414 6.51 6.178.204.046.411.076.619.105l.3.045h14.647c.141-.025.283-.047.424-.068.312-.048.623-.095.924-.179 3.352-.932 5.419-3.103 6.168-6.5.12-.547.15-1.123.152-1.686.012-4.372.015-8.746.004-13.119zm-2.661 13.16c-.008 2.564-1.45 4.618-3.83 5.419-.616.207-1.3.298-1.952.301-4.373.026-8.746.02-13.12.01-2.574-.004-4.646-1.437-5.451-3.824-.208-.616-.302-1.298-.305-1.951-.026-4.372-.02-8.745-.012-13.117.005-2.579 1.439-4.622 3.813-5.472.652-.234 1.329-.304 2.016-.304 1.633-.002 3.265-.002 4.897-.001h3.49c1.549 0 3.097.001 4.644-.001 1.243-.003 2.398.293 3.415 1.028 1.6 1.157 2.393 2.742 2.397 4.706.009 4.403.013 8.805-.002 13.207zM15.008 7.284c-4.231-.013-7.7 3.434-7.74 7.696-.042 4.225 3.437 7.729 7.704 7.762 4.23.031 7.732-3.451 7.755-7.71.023-4.234-3.464-7.734-7.719-7.748zm-.014 12.79c-2.795-.004-5.065-2.276-5.06-5.065.005-2.794 2.277-5.063 5.067-5.058 2.795.004 5.065 2.277 5.06 5.065-.005 2.794-2.278 5.064-5.067 5.059zM21.1 6.98c0-1.06.87-1.93 1.937-1.941 1.074-.01 1.966.87 1.966 1.942 0 1.056-.878 1.937-1.937 1.944-1.073.008-1.968-.877-1.966-1.945z" clip-rule="evenodd"/>
</svg>
