<svg xmlns="http://www.w3.org/2000/svg" width="30" height="25" fill="none" viewBox="0 0 30 25">
    <path fill="#E50914" d="M0 21.54c3.368.328 6.39-.493 9.069-2.535-1.309-.053-2.492-.451-3.54-1.23-1.045-.778-1.766-1.791-2.187-3.037.468.084.926.123 1.388.103.455-.018.907-.076 1.373-.209-1.775-.415-3.133-1.367-4.063-2.9-.68-1.124-.878-2.327-.85-3.187.86.466 1.773.723 2.77.759-1.539-1.09-2.456-2.537-2.682-4.389-.166-1.344.108-2.609.781-3.787 3.334 3.91 7.553 6.06 12.705 6.411-.034-.201-.07-.377-.093-.553-.178-1.321.036-2.577.672-3.752.624-1.154 1.531-2.023 2.71-2.605.906-.447 1.868-.655 2.878-.626 1.47.042 2.762.544 3.879 1.491.145.123.276.262.417.39.025.023.073.04.105.033 1.316-.26 2.553-.728 3.716-1.391.034-.02.068-.038.101-.056.005-.003.012 0 .031 0-.486 1.44-1.386 2.548-2.694 3.37 1.233-.153 2.388-.468 3.498-.951l.016.02c-.173.234-.342.47-.52.7-.71.912-1.535 1.706-2.473 2.385-.043.032-.072.059-.069.123.04.822.01 1.643-.077 2.463-.148 1.41-.468 2.779-.944 4.112-.627 1.752-1.496 3.375-2.622 4.861-1.604 2.117-3.585 3.784-5.974 4.965-1.455.719-2.986 1.207-4.584 1.485-1.324.23-2.655.32-3.999.269-2.208-.084-4.324-.57-6.348-1.449-.81-.352-1.588-.766-2.335-1.237L0 21.541z"/>
</svg>
